<?xml version="1.0" encoding="UTF-8" standalone="no"?>
<!-- Created with Inkscape (http://www.inkscape.org/) -->

<svg
   xmlns:dc="http://purl.org/dc/elements/1.1/"
   xmlns:cc="http://creativecommons.org/ns#"
   xmlns:rdf="http://www.w3.org/1999/02/22-rdf-syntax-ns#"
   xmlns:svg="http://www.w3.org/2000/svg"
   xmlns="http://www.w3.org/2000/svg"
   xmlns:sodipodi="http://sodipodi.sourceforge.net/DTD/sodipodi-0.dtd"
   xmlns:inkscape="http://www.inkscape.org/namespaces/inkscape"
   version="1.1"
   id="svg2"
   xml:space="preserve"
   width="1056"
   height="816"
   viewBox="0 0 1056 816"
   sodipodi:docname="Innove_logo_highres_vector.svg"
   inkscape:version="0.92.3 (2405546, 2018-03-11)"><metadata
     id="metadata8"><rdf:RDF><cc:Work
         rdf:about=""><dc:format>image/svg+xml</dc:format><dc:type
           rdf:resource="http://purl.org/dc/dcmitype/StillImage" /><dc:title></dc:title></cc:Work></rdf:RDF></metadata><defs
     id="defs6"><clipPath
       clipPathUnits="userSpaceOnUse"
       id="clipPath18"><path
         d="M 91.25,378.924 C 82.854,371.67 72.054,366.001 72.054,366.001 v 0 c 0,0 11.684,-9.221 17.675,-22.045 v 0 c 5.485,-11.739 5.322,-27.177 5.322,-27.177 v 0 c 0,0 15.582,5.792 26.797,15.774 v 0 c 10.575,9.412 20.527,20.525 20.527,20.525 v 0 c 0,0 -5.662,13.973 -11.784,22.616 v 0 c -10.247,14.466 -23.567,20.525 -23.567,20.525 v 0 c 0,0 -6.711,-9.462 -15.774,-17.295"
         id="path16"
         inkscape:connector-curvature="0" /></clipPath><linearGradient
       x1="0"
       y1="0"
       x2="1"
       y2="0"
       gradientUnits="userSpaceOnUse"
       gradientTransform="matrix(-35.460457,0,0,35.460457,142.37419,356.49911)"
       spreadMethod="pad"
       id="linearGradient28"><stop
         style="stop-opacity:1;stop-color:#ffffff"
         offset="0"
         id="stop24" /><stop
         style="stop-opacity:1;stop-color:#2d2b71"
         offset="1"
         id="stop26" /></linearGradient><clipPath
       clipPathUnits="userSpaceOnUse"
       id="clipPath38"><path
         d="m 134.934,392.139 c -10.602,-9.161 -24.239,-16.32 -24.239,-16.32 v 0 c 0,0 14.753,-11.645 22.32,-27.84 v 0 c 6.925,-14.824 6.719,-34.32 6.719,-34.32 v 0 c 0,0 19.678,7.314 33.84,19.92 v 0 c 13.354,11.886 25.92,25.92 25.92,25.92 v 0 c 0,0 -7.149,17.645 -14.88,28.56 v 0 c -12.939,18.268 -29.76,25.92 -29.76,25.92 v 0 c 0,0 -8.474,-11.949 -19.92,-21.84"
         id="path36"
         inkscape:connector-curvature="0" /></clipPath><linearGradient
       x1="0"
       y1="0"
       x2="1"
       y2="0"
       gradientUnits="userSpaceOnUse"
       gradientTransform="matrix(-45.862305,0,0,45.862305,199.49419,363.81912)"
       spreadMethod="pad"
       id="linearGradient48"><stop
         style="stop-opacity:1;stop-color:#ffffff"
         offset="0"
         id="stop44" /><stop
         style="stop-opacity:1;stop-color:#e25026"
         offset="1"
         id="stop46" /></linearGradient><clipPath
       clipPathUnits="userSpaceOnUse"
       id="clipPath58"><path
         d="m 184.847,376.497 c -7.135,-6.159 -16.313,-10.971 -16.313,-10.971 v 0 c 0,0 9.93,-7.828 15.021,-18.716 v 0 c 4.661,-9.965 4.522,-23.071 4.522,-23.071 v 0 c 0,0 13.242,4.918 22.774,13.391 v 0 c 8.987,7.99 17.443,17.425 17.443,17.425 v 0 c 0,0 -4.81,11.862 -10.013,19.2 v 0 c -8.709,12.28 -20.028,17.424 -20.028,17.424 v 0 c 0,0 -5.703,-8.033 -13.406,-14.682"
         id="path56"
         inkscape:connector-curvature="0" /></clipPath><linearGradient
       x1="0"
       y1="0"
       x2="1"
       y2="0"
       gradientUnits="userSpaceOnUse"
       gradientTransform="matrix(-30.381287,0,0,30.381287,228.54419,357.45914)"
       spreadMethod="pad"
       id="linearGradient68"><stop
         style="stop-opacity:1;stop-color:#ffffff"
         offset="0"
         id="stop64" /><stop
         style="stop-opacity:1;stop-color:#2d2b71"
         offset="1"
         id="stop66" /></linearGradient><clipPath
       clipPathUnits="userSpaceOnUse"
       id="clipPath78"><path
         d="M 0,612 H 792 V 0 H 0 Z"
         id="path76"
         inkscape:connector-curvature="0" /></clipPath></defs><sodipodi:namedview
     pagecolor="#ffffff"
     bordercolor="#666666"
     borderopacity="1"
     objecttolerance="10"
     gridtolerance="10"
     guidetolerance="10"
     inkscape:pageopacity="0"
     inkscape:pageshadow="2"
     inkscape:window-width="640"
     inkscape:window-height="480"
     id="namedview4"
     showgrid="false"
     inkscape:zoom="0.28921569"
     inkscape:cx="528"
     inkscape:cy="408"
     inkscape:window-x="0"
     inkscape:window-y="34"
     inkscape:window-maximized="0"
     inkscape:current-layer="g10" /><g
     id="g10"
     inkscape:groupmode="layer"
     inkscape:label="Innove_logo_highres_vector"
     transform="matrix(1.3333333,0,0,-1.3333333,0,816)"><g
       id="g12"><g
         id="g14"
         clip-path="url(#clipPath18)"><g
           id="g20"><g
             id="g22"><path
               d="M 91.25,378.924 C 82.854,371.67 72.054,366.001 72.054,366.001 v 0 c 0,0 11.684,-9.221 17.675,-22.045 v 0 c 5.485,-11.739 5.322,-27.177 5.322,-27.177 v 0 c 0,0 15.582,5.792 26.797,15.774 v 0 c 10.575,9.412 20.527,20.525 20.527,20.525 v 0 c 0,0 -5.662,13.973 -11.784,22.616 v 0 c -10.247,14.466 -23.567,20.525 -23.567,20.525 v 0 c 0,0 -6.711,-9.462 -15.774,-17.295"
               style="fill:url(#linearGradient28);stroke:none"
               id="path30"
               inkscape:connector-curvature="0" /></g></g></g></g><g
       id="g32"><g
         id="g34"
         clip-path="url(#clipPath38)"><g
           id="g40"><g
             id="g42"><path
               d="m 134.934,392.139 c -10.602,-9.161 -24.239,-16.32 -24.239,-16.32 v 0 c 0,0 14.753,-11.645 22.32,-27.84 v 0 c 6.925,-14.824 6.719,-34.32 6.719,-34.32 v 0 c 0,0 19.678,7.314 33.84,19.92 v 0 c 13.354,11.886 25.92,25.92 25.92,25.92 v 0 c 0,0 -7.149,17.645 -14.88,28.56 v 0 c -12.939,18.268 -29.76,25.92 -29.76,25.92 v 0 c 0,0 -8.474,-11.949 -19.92,-21.84"
               style="fill:url(#linearGradient48);stroke:none"
               id="path50"
               inkscape:connector-curvature="0" /></g></g></g></g><g
       id="g52"><g
         id="g54"
         clip-path="url(#clipPath58)"><g
           id="g60"><g
             id="g62"><path
               d="m 184.847,376.497 c -7.135,-6.159 -16.313,-10.971 -16.313,-10.971 v 0 c 0,0 9.93,-7.828 15.021,-18.716 v 0 c 4.661,-9.965 4.522,-23.071 4.522,-23.071 v 0 c 0,0 13.242,4.918 22.774,13.391 v 0 c 8.987,7.99 17.443,17.425 17.443,17.425 v 0 c 0,0 -4.81,11.862 -10.013,19.2 v 0 c -8.709,12.28 -20.028,17.424 -20.028,17.424 v 0 c 0,0 -5.703,-8.033 -13.406,-14.682"
               style="fill:url(#linearGradient68);stroke:none"
               id="path70"
               inkscape:connector-curvature="0" /></g></g></g></g><g
       id="g72"><g
         id="g74"
         clip-path="url(#clipPath78)"><g
           id="g80"
           transform="translate(76.1342,285.8191)"><path
             d="m 0,0 c 0,0 52.37,3.663 87.6,13.92 61.023,17.767 72.72,39.6 72.72,39.6 L 126.24,0 Z"
             style="fill:#000000;fill-opacity:1;fill-rule:evenodd;stroke:none"
             id="path82"
             inkscape:connector-curvature="0" /></g><g
           id="g84"
           transform="translate(670.1342,361.1791)"><path
             d="M 0,0 6.72,15.36 H 27.6 L 12.48,0 Z"
             style="fill:#e14f26;fill-opacity:1;fill-rule:evenodd;stroke:none"
             id="path86"
             inkscape:connector-curvature="0" /></g><g
           id="g88"
           transform="translate(696.3329,326.0408)"><path
             d="m 0,0 c -0.641,4.614 -3.292,7.574 -7.395,9.315 -4.555,1.933 -9.305,2.689 -14.261,2.22 -3.98,-0.377 -7.78,-1.239 -11.222,-3.377 C -35.975,6.234 -37.896,3.444 -39.116,0 Z m 22.784,-11.412 h -62.589 c 0.922,-3.83 2.338,-7.266 5.23,-9.932 4.132,-3.809 9.141,-5.407 14.639,-5.681 5.168,-0.258 10.211,0.232 14.938,2.606 2.605,1.308 4.722,3.176 6.642,5.326 0.289,0.324 0.837,0.647 1.233,0.612 3.513,-0.307 7.018,-0.703 10.526,-1.056 2.76,-0.277 5.522,-0.53 8.283,-0.795 0.505,-0.049 1.008,-0.107 1.927,-0.205 -1.88,-2.423 -3.44,-4.712 -5.278,-6.751 -6.79,-7.535 -15.445,-11.633 -25.287,-13.54 -5.541,-1.073 -11.133,-1.192 -16.715,-0.895 -8.322,0.443 -16.291,2.296 -23.288,7.133 -7.472,5.166 -11.801,12.377 -13.335,21.248 -1.21,6.994 -0.604,13.845 2.546,20.302 3.732,7.651 10.047,12.407 17.81,15.41 5.127,1.984 10.465,3.003 15.954,3.429 7.761,0.603 15.364,-0.032 22.775,-2.447 C 7.289,20.584 14.174,15.71 18.597,7.766 20.64,4.097 21.802,0.128 22.21,-4.048 c 0.234,-2.398 0.377,-4.804 0.574,-7.364"
             style="fill:#231f20;fill-opacity:1;fill-rule:nonzero;stroke:none"
             id="path90"
             inkscape:connector-curvature="0" /></g><g
           id="g92"
           transform="translate(557.5358,349.6127)"><path
             d="m 0,0 h 1.306 c 6.762,0 13.524,-0.021 20.285,0.024 0.917,0.006 1.315,-0.304 1.622,-1.124 5.33,-14.21 10.685,-28.411 16.037,-42.613 0.149,-0.393 0.329,-0.775 0.602,-1.416 1.244,3.163 2.382,6.052 3.516,8.944 4.602,11.74 9.206,23.479 13.796,35.224 0.212,0.542 0.344,0.98 1.101,0.977 7.079,-0.03 14.159,-0.022 21.238,-0.028 0.071,0 0.141,-0.044 0.316,-0.103 -1.134,-2.523 -2.258,-5.036 -3.392,-7.546 -5.175,-11.461 -10.35,-22.923 -15.53,-34.383 -3.03,-6.704 -6.075,-13.403 -9.092,-20.114 -0.264,-0.587 -0.584,-0.81 -1.246,-0.808 -7.159,0.026 -14.318,0.033 -21.477,-0.008 -0.784,-0.004 -0.992,0.384 -1.247,0.953 C 19.883,-44.26 11.922,-26.503 3.958,-8.747 2.685,-5.908 1.392,-3.076 0,0"
             style="fill:#231f20;fill-opacity:1;fill-rule:nonzero;stroke:none"
             id="path94"
             inkscape:connector-curvature="0" /></g><g
           id="g96"
           transform="translate(514.608,299.1073)"><path
             d="m 0,0 c 1.66,0.134 3.329,0.199 4.978,0.416 4.171,0.548 7.983,1.999 11.103,4.903 4.222,3.93 5.847,8.94 5.765,14.58 -0.107,7.431 -3.497,12.901 -10.168,16.132 -6.312,3.057 -12.93,2.963 -19.589,1.241 -3.719,-0.962 -6.994,-2.743 -9.552,-5.652 -3.788,-4.308 -5.141,-9.393 -4.466,-15.024 0.755,-6.308 3.873,-11.066 9.58,-13.986 C -8.481,0.631 -4.301,0.053 0,0 m -1.218,-15.086 c -8.13,0.102 -17.002,1.578 -25.158,6.03 -8.848,4.828 -14.782,12.016 -16.402,22.095 -2.232,13.887 2.556,24.926 14.373,32.735 5.438,3.593 11.521,5.563 17.893,6.659 4.423,0.762 8.888,1.092 13.384,0.886 7.297,-0.335 14.4,-1.548 21.059,-4.701 C 33.679,44.004 40.378,36.745 42.403,25.964 44.272,16.015 42.197,6.825 35.628,-1.097 30.307,-7.514 23.213,-11.025 15.33,-13.155 10.257,-14.525 5.075,-15.083 -1.218,-15.086"
             style="fill:#231f20;fill-opacity:1;fill-rule:nonzero;stroke:none"
             id="path98"
             inkscape:connector-curvature="0" /></g><g
           id="g100"
           transform="translate(371.6154,286.7208)"><path
             d="m 0,0 h -20.44 v 1.382 c 0,10.583 0.018,21.166 -0.012,31.749 -0.008,2.82 -0.237,5.643 -1.298,8.293 -2.093,5.227 -6.243,7.844 -11.6,8.615 -5.168,0.743 -10.266,0.33 -15.187,-1.621 -5.365,-2.127 -8.284,-6.176 -8.416,-11.797 -0.276,-11.645 -0.207,-23.299 -0.279,-34.95 -0.003,-0.515 -10e-4,-1.03 -10e-4,-1.637 h -20.129 v 62.765 h 20.093 v -8.821 c 0.891,0.782 1.604,1.365 2.27,1.997 4.958,4.702 10.976,7.215 17.631,8.086 3.787,0.496 7.674,0.703 11.482,0.473 7.5,-0.454 14.401,-2.684 19.827,-8.26 3.069,-3.154 4.745,-7.028 5.323,-11.312 0.445,-3.296 0.679,-6.643 0.704,-9.97 C 0.052,23.814 0,12.634 0,1.454 Z"
             style="fill:#231f20;fill-opacity:1;fill-rule:nonzero;stroke:none"
             id="path102"
             inkscape:connector-curvature="0" /></g><g
           id="g104"
           transform="translate(462.4266,286.7208)"><path
             d="m 0,0 h -20.44 v 1.382 c 0,10.583 0.018,21.166 -0.012,31.749 -0.008,2.82 -0.237,5.643 -1.298,8.293 -2.093,5.227 -6.243,7.844 -11.6,8.615 -5.168,0.743 -10.266,0.33 -15.187,-1.621 -5.365,-2.127 -8.284,-6.176 -8.416,-11.797 -0.276,-11.645 -0.207,-23.299 -0.279,-34.95 -0.003,-0.515 -10e-4,-1.03 -10e-4,-1.637 h -20.129 v 62.765 h 20.093 v -8.821 c 0.891,0.782 1.604,1.365 2.27,1.997 4.958,4.702 10.976,7.215 17.631,8.086 3.787,0.496 7.674,0.703 11.482,0.473 7.5,-0.454 14.401,-2.684 19.827,-8.26 3.069,-3.154 4.745,-7.028 5.323,-11.312 0.445,-3.296 0.679,-6.643 0.704,-9.97 C 0.052,23.814 0,12.634 0,1.454 Z"
             style="fill:#231f20;fill-opacity:1;fill-rule:nonzero;stroke:none"
             id="path106"
             inkscape:connector-curvature="0" /></g><path
           d="m 278.933,286.709 h -21.745 v 87.681 h 21.745 z"
           style="fill:#231f20;fill-opacity:1;fill-rule:nonzero;stroke:none"
           id="path108"
           inkscape:connector-curvature="0" /></g></g></g></svg>